<?xml version="1.0" encoding="UTF-8" standalone="no"?>
<!-- Uploaded to: SVG Repo, www.svgrepo.com, Generator: SVG Repo Mixer Tools -->

<svg
   fill="#000000"
   height="800px"
   width="800px"
   version="1.1"
   id="Layer_1"
   viewBox="0 0 501.72 501.72"
   xml:space="preserve"
   sodipodi:docname="home_usage.svg"
   inkscape:version="1.3.2 (091e20e, 2023-11-25)"
   xmlns:inkscape="http://www.inkscape.org/namespaces/inkscape"
   xmlns:sodipodi="http://sodipodi.sourceforge.net/DTD/sodipodi-0.dtd"
   xmlns="http://www.w3.org/2000/svg"
   xmlns:svg="http://www.w3.org/2000/svg"><defs
   id="defs2" /><sodipodi:namedview
   id="namedview2"
   pagecolor="#ffffff"
   bordercolor="#000000"
   borderopacity="0.25"
   inkscape:showpageshadow="2"
   inkscape:pageopacity="0.0"
   inkscape:pagecheckerboard="0"
   inkscape:deskcolor="#d1d1d1"
   inkscape:zoom="0.295"
   inkscape:cx="400"
   inkscape:cy="400"
   inkscape:window-width="1440"
   inkscape:window-height="765"
   inkscape:window-x="0"
   inkscape:window-y="25"
   inkscape:window-maximized="0"
   inkscape:current-layer="Layer_1" />
<g
   id="g2">
	<g
   id="g1">
		<path
   d="M494.593,203.66l-75.733-65.067V22.327c0-11.733-9.6-21.333-21.333-21.333s-21.333,9.6-21.333,21.333v78.933l-110.933-96    c-8.533-6.4-20.267-6.4-27.733,0L7.126,202.593c-8.533,7.467-9.6,21.333-2.133,29.867c7.467,8.533,21.333,9.6,29.867,2.133    l18.133-16v261.333c0,11.733,9.6,21.333,21.333,21.333h352c11.733,0,21.333-9.6,22.4-21.333V218.593l18.133,16    c13.867,10.667,25.6,3.2,29.867-1.067C504.194,223.927,503.127,211.127,494.593,203.66z M406.06,459.66H95.66V182.327    l155.733-134.4l154.667,134.4V459.66z"
   id="path1" />
	</g>
</g>
<g
   id="g4"
   transform="matrix(0.99625305,0,0,0.99625305,8.27763,116.58288)">
		<g
   id="g3">
			<path
   d="m 245.25341,156.46241 c -1.93908,-3.54552 -1.80576,-7.86588 0.36564,-11.28996 L 312.35033,40.33937 h -61.97796 l -87.24936,155.11056 h 54.53316 c 3.69996,0 7.14648,1.85064 9.207,4.91964 2.04996,3.07956 2.4486,6.98016 1.03092,10.39236 L 181.06181,323.73809 319.52057,162.21233 h -64.548 c -4.0458,0 -7.7682,-2.21628 -9.71916,-5.74992 z"
   id="path1-3"
   style="stroke-width:1.32" />
			
			
		</g>
	</g></svg>
