<?xml version="1.0" encoding="iso-8859-1"?>
<!-- Uploaded to: SVG Repo, www.svgrepo.com, Generator: SVG Repo Mixer Tools -->
<svg fill="#000000" height="800px" width="800px" version="1.1" id="Layer_1" xmlns="http://www.w3.org/2000/svg" xmlns:xlink="http://www.w3.org/1999/xlink" 
	 viewBox="0 0 512 512" xml:space="preserve">
<g>
	<g>
		<path d="M398.016,297.674H113.984L24.682,476.279h82.481V512h35.721v-35.721h226.233V512h35.721v-35.721h82.481L398.016,297.674z
			 M273.86,333.395h102.077l17.86,35.721H273.86V333.395z M238.14,440.558H82.481l17.86-35.721H238.14V440.558z M238.14,369.116
			H118.202l17.86-35.721H238.14V369.116z M273.86,440.558v-35.721h137.798l17.86,35.721H273.86z"/>
	</g>
</g>
<g>
	<g>
		<path d="M357.208,130.978c0-12.051-2.127-23.613-6.008-34.341l27.159-15.68l-17.86-30.934l-27.212,15.711
			c-14.921-17.65-35.758-30.122-59.425-34.356V0H238.14v31.377c-23.667,4.234-44.505,16.707-59.425,34.354l-27.213-15.71
			l-17.86,30.934l27.159,15.68c-3.882,10.728-6.008,22.29-6.008,34.341s2.127,23.613,6.008,34.341l-27.159,15.68l17.86,30.934
			l27.212-15.711c14.922,17.649,35.759,30.121,59.425,34.354v31.378h35.721v-31.377c23.668-4.234,44.505-16.707,59.427-34.354
			l27.212,15.711l17.86-30.934l-27.159-15.68C355.082,154.591,357.208,143.029,357.208,130.978z M256,196.465
			c-36.11,0-65.488-29.378-65.488-65.488S219.89,65.488,256,65.488s65.488,29.378,65.488,65.488S292.11,196.465,256,196.465z"/>
	</g>
</g>
</svg>